<?xml version="1.0" encoding="utf-8"?>
<!-- Generator: Adobe Illustrator 16.0.0, SVG Export Plug-In . SVG Version: 6.00 Build 0)  -->
<!DOCTYPE svg PUBLIC "-//W3C//DTD SVG 1.1//EN" "http://www.w3.org/Graphics/SVG/1.1/DTD/svg11.dtd">
<svg version="1.1" id="Layer_1" xmlns="http://www.w3.org/2000/svg" xmlns:xlink="http://www.w3.org/1999/xlink" x="0px" y="0px"
	 width="340.16px" height="340.16px" viewBox="0 0 340.16 340.16" enable-background="new 0 0 340.16 340.16" xml:space="preserve">
<g>
	<g>
		<path fill="#FFFFFF" d="M3.861,169.64C3.861,77.317,78.694,2.463,171.01,2.463c92.347,0,167.186,74.854,167.186,167.177
			c0,92.325-74.839,167.17-167.186,167.17C78.694,336.81,3.861,261.965,3.861,169.64"/>
	</g>
	<g>
		<path fill="none" stroke="#8F1336" stroke-width="2.8783" stroke-miterlimit="3.864" d="M3.861,169.64
			C3.861,77.317,78.694,2.463,171.01,2.463c92.347,0,167.186,74.854,167.186,167.177c0,92.325-74.839,167.17-167.186,167.17
			C78.694,336.81,3.861,261.965,3.861,169.64z"/>
		<path fill="#8F1336" d="M69.083,157.822c0.043-1.745-0.755-4.339-0.496-5.889l-5.631,10.431l-2.861-10.393L56.6,162.364
			l-3.022-10.393l-3.333,10.245l-3.934-10.245l-3.327,10.245l-3.64-10.245l-3.178,10.245l-3.487-10.245l-3.028,10.393l-3.783-10.393
			l-3.33,10.393l-3.488-10.393l-3.336,10.393l-3.634-10.393l-2.873,10.393l-4.136-10.53c-1.373,4.852-0.853,12.063-0.935,16.959
			c-1.201,94.799,75.894,168.758,168.374,167.826c86.992,0.14,166.19-72.147,165.666-167.442c0-4.902-1-17.279-1-17.279
			l-4.218,10.466l-3.183-10.393l-3.479,10.393l-3.323-10.393l-3.196,10.393l-3.488-10.393l-3.322,10.393l-3.476-10.393
			l-3.645,10.393l-3.48-10.393l-3.489,10.393l-3.316-10.393l-3.195,10.393l-3.482-10.393l-3.178,10.393l-3.622-10.393l-2.896,10.393
			l-5.803-10.415c0,0-1.41,16.867-1.494,29.287c-0.01,1.427-0.657,2.535-0.776,3.818c-0.061,0.65-1.368,3.299-1.514,3.918
			c-1.808,7.896-4.535,16.044-7.67,23.556c-7.864,16.201-18.566,24.325-28.113,32.206c-8.79,7.246-21.956,17.27-38.465,20.751
			c-16.507,3.479-22.555,5.29-41.487,2.571c-18.929-2.727-30.918-7.714-41.216-15.292c-10.301-7.562-16.039-15.14-21.802-21.652
			c-5.751-6.503-13.686-21.613-15.756-28.305c-2.166-7.021-3.761-15.568-4.791-23.193c-0.481-3.55-1.565-5.631-1.037-8.477
			C69.821,168.107,68.942,163.064,69.083,157.822"/>
	</g>
	<path fill="#FFFFFF" d="M67.463,169.474c0-57.322,46.472-103.795,103.79-103.795c57.336,0,103.823,46.473,103.823,103.795
		c0,57.33-46.487,103.808-103.823,103.808C113.936,273.282,67.463,226.804,67.463,169.474"/>
	<path fill="#FEE757" stroke="#8F1336" stroke-width="2.6372" stroke-miterlimit="3.864" d="M67.659,169.476
		c0-57.216,46.384-103.602,103.594-103.602c57.229,0,103.628,46.386,103.628,103.602c0,57.222-46.398,103.613-103.628,103.613
		C114.042,273.089,67.659,226.697,67.659,169.476"/>
	<g>
		<path d="M144.601,13.065c0-2.106,1.695-3.818,3.81-3.818c2.108,0,3.829,1.712,3.829,3.818c0,2.108-1.716,3.828-3.829,3.828
			C146.301,16.893,144.601,15.173,144.601,13.065"/>
		<path d="M153.213,11.494c0-2.117,1.716-3.823,3.826-3.823c2.104,0,3.82,1.706,3.82,3.823c0,2.115-1.715,3.822-3.82,3.822
			C154.93,15.316,153.213,13.609,153.213,11.494"/>
		<path d="M179.064,16.807c0-2.112,1.72-3.81,3.837-3.81c2.106,0,3.823,1.698,3.823,3.81c0,2.122-1.717,3.83-3.823,3.83
			C180.784,20.633,179.064,18.928,179.064,16.807"/>
		<path d="M187.835,16.741c0-2.111,1.713-3.828,3.84-3.828c2.091,0,3.812,1.715,3.812,3.828c0,2.112-1.721,3.817-3.812,3.817
			C189.545,20.559,187.835,18.853,187.835,16.741"/>
		<path d="M276.323,85.291l9.613,0.495c0,0,0.19,1.652,1.671,4.864c1.484,3.203,3.141,6.545,5.974,12.654
			c3.172,6.84,6.763,15.672,7.655,19.729c0.675,3.147,0.208,7.134-2.215,9.875c-3.455,3.95-11.859,5.92-11.859,5.92
			s-3.603-14.149-6-20.447c-5.408-14.181-14.704-26.979-14.704-26.979l5.56-4.5c0,0,11.012,17.731,12.886,22.195
			c3.761,8.832,6.601,18.884,6.601,18.884s2.366,0.118,2.561-2.104c0.295-3.596-4.197-14.667-7.882-22.574
			C282.515,95.447,276.323,85.291,276.323,85.291"/>
		<path d="M270.518,47.423c-4.645-0.546-5.836-1.299-5.836-1.299l-0.313,2.7l-13.783,15.734c0,0-13.195-10.491-29.826-18.132
			c-5.252-2.405-26.247-8.249-26.247-8.249l1.048-16.794c0,0-2.638,1.491-4.35,2.105c-1.737,0.625-4.122,0.768-8.091,1.198
			c-4.937,0.533-5.995,7.044-5.995,7.044v11.695c0,0,19.181,0.823,37.323,8.239c19.805,8.098,37.329,23.267,37.329,23.267
			l23.189-26.765C274.967,48.164,274.084,47.847,270.518,47.423 M184.171,36.677c-0.368,0-0.345-2.276,0.154-3.443
			c1.095-2.605,3.138-1.502,3.138-1.502l0.151,5.243C187.614,36.975,185.531,36.677,184.171,36.677"/>
		<path d="M276.074,71.479c-1.48-0.955-5.391-2.634-7.406-3.585c-2.949-1.39-6.416,1.106-6.416,1.106s-6.572,6.357-7.04,8.027
			c-0.422,1.554,4.488,6.107,5.12,6.719c0.603,0.616-0.918,2.996-3,3.741c-1.968,0.708-3.151-0.145-4.202-1.705
			c-1.047-1.523-1.986-5.147-2.863-6.382c-0.853-1.233-1.963-2.377-3.425-2.996c-1.499-0.616-4.21,0.151-4.21,0.151
			s-1.344,1.796,1.055,3.002c0.848,0.638,2.918,0.831,3.403,0.918c1.214,0.259,0.887,0.472,1.963,1.735
			c1.366,1.601,0.369,1.476,1.606,4.685c1.228,3.198,2.471,5.545,6.529,5.921c4.075,0.373,8.057-4.08,11.08-6.67
			c3.031-2.601,13.492-12.594,13.492-12.594S278.501,73.055,276.074,71.479 M265.993,78.814c0,0-2.219-0.62-1.837-1.974
			c0.152-0.576,1.154-1.366,2.305-1.328c1.217,0.025,2.563,0.893,2.563,0.893L265.993,78.814z"/>
		<path d="M164.072,14.734c-6.425,1.353-8.96,2.007-10.638,2.719c-3.311,1.356-2.69,7.766-2.822,9.492
			c-0.116,1.732,0.563,5.843,1.495,6.134c0.802,0.273,8.261-0.333,8.261-0.333l0.106,3.576c0,0-8.099,0.594-13.478,1.701
			c-5.096,1.061-10.656,2.243-10.656,2.243s-3.123-4.195-5.832-5.545c-2.708-1.361-7.864-0.778-10.73,0.118
			c-4.813,1.483-16.023,7.149-20.718,9.998C94.371,47.663,82.516,56.55,82.516,56.55s-5.163-6.411-7.892-8.887
			c-2.374-2.182-3.948-3.575-3.948-3.575l-2.212,11.478c0,0,2.349-0.496,3.94,0.249c0.863,0.401,8.894,9.622,10.244,11.345
			c1.359,1.723,0.094,3.508-0.491,4.078c-6.064,5.766-12.933,15.124-16.422,19.558c-4.195,5.302-9.896,16.793-11.455,20.404
			c-0.412,0.938-0.742-0.254-3.076,0.119c-2.36,0.373-5.812,1.483-5.812,1.483l5.556,7.401c0,0,2.424-1.63,5.507-2.125
			c2.391-0.374,4.486,0.302,5.228,1.386c0.891,1.314,2.106,2.512,1.726,4.804c-0.277,1.598-0.988,3.217-2.836,4.811
			c-1.857,1.604-1.812,1.624-2.183,3.85c-0.151,0.933,0.604,3.149,2.248,2.686c3.005,0.162,1.658-3.937,1.658-3.937
			s-0.246-0.504,0.251-2.476c0.495-1.976,3.083-1.976,4.073-4.313c0.986-2.35,0.97-6.013,0.476-7.862
			c-0.505-1.853-2.572-2.5-3.81-3.361c-1.236-0.87-0.739-2.224-0.739-2.224s2.09-5.062,8.021-14.677
			c5.913-9.624,15.507-18.315,19.726-22.451c15.171-14.856,36.35-23.286,42.767-25.341c16.777-5.4,34.342-5.75,34.342-5.75V13.013
			C167.397,13.013,165.579,14.396,164.072,14.734 M157.638,27.082c0,0-0.347-2.22-0.15-2.848c0.373-1.23,2.636-1.154,2.636-1.154
			l0.052,4.002H157.638z M111.603,50.326C99.518,56.49,90.538,64.452,90.538,64.452s-4.102-2.231-1.859-4.095
			c2.207-1.841,9.421-6.636,14.316-9.971c7.651-5.181,16.783-8.636,16.783-8.636s3.576-1.358,5.553-0.868
			c1.505,0.405,2.622,2.103,2.622,2.103S117.939,47.113,111.603,50.326"/>
	</g>
	<g>
		<path fill="#7C1315" d="M225.705,196.078c0,0-4.382-0.019-7.444,0c-3.491,0.023-2.744-1.432-7.469-0.053
			c-4.722,1.352-2.886,1.069-7.622,1.565c-4.717,0.498-4.117-0.078-7.838-0.456c-3.741-0.366-3.487-1.503-7.296-1.493
			c-4.597,0.019-6.175,0.743-6.175,0.743s0.324-3.48,2.435-4.354c2.114-0.865,1.875-1.738,6.6-1.738
			c4.721,0,6.843-0.376,7.845-0.616c1.354-0.347,4.309-0.16,3.725-4.232c-0.624-4.411-3.866-19.776-4.098-23.88
			c-0.2-2.884-1.628-21.386-1.628-21.386s0.615-3.984,0.737-5.103c0.137-1.12,1.257-4.849,1.257-4.849s2.354,0.125,2.747,1.113
			c0.36,0.996,2.131,1.239,1.496,2.727c-0.913,2.112-1.64,10.178-0.889,16.224c0.639,5.078,1.038,12.372,1.695,16.415
			c0.76,4.723,4.278,16.75,5.908,18.984c0.919,1.334,1.617,0.627,2.478,0.131c0.876-0.506,1.901-9.685,2.355-13.555
			c0.378-3.218-0.226-12.34-0.312-14.567c-0.293-7.702-2.669-15.785-6.398-22.004c-1.181-1.955,0,0.136,0.113-1.114
			c0.134-1.243,0.134-2.108,0.134-2.108s1.362,0.114,2.485,0.369c1.129,0.24,1.252,0.371,1.252,0.371s2.539,3.985,4.454,10.157
			c1.421,4.588,2.959,11.205,2.698,19.522c-0.225,6.599,0.307,22.057,0.307,22.057s1.118,1.499,3.593,1.74
			c2.496,0.248,9.134-0.119,13.731,0.625l-9.674,9.676L225.705,196.078z"/>
		<path d="M145.056,168.713c0.354,2.54,2.133,6.781,3.178,8.91l-0.889,0.997c-0.758-2.801-3.052-6.973-3.45-9.554L145.056,168.713z"
			/>
		<path fill="#FFFFFF" d="M113.659,196.078c0,0,6.438-2.1,8.807-0.331c1.787,1.348,4.075,3.096,5.867,2.447
			c1.795-0.651,8.746-3.262,11.407-3.262c4.555,0,8.145,2.444,11.4,1.951c2.124-0.313,8.803-4.394,13.768-3.104
			c3.172,0.814,8.398,2.583,10.837,2.677c2.601,0.106,6.267-0.715,9.679-1.038c5.393-0.485,12.305,2.125,17.366,1.635
			c5.169-0.496,11.8-4.886,24.347-0.975c0.315,0.099-5.944,5.372-13.934,11.395c-6.864,5.026-15.165,10.133-18.244,12.228
			c-8.646,5.86-24.265,13.261-24.265,13.261s-16.561-8.315-24.118-12.934c-5.233-3.199-17.789-11.931-22.324-15.319
			C120.996,202.263,113.659,196.078,113.659,196.078"/>
		<path d="M152.207,166.252c0.358,2.544,1.317,5.585,2.358,7.721l-0.886,0.998c-0.76-2.803-2.233-5.784-2.636-8.369L152.207,166.252
			z"/>
		<path d="M163.661,168.061c0.263,2.066-0.222,5.375-0.09,7.968l-1.131-1.105c0.166-1.971,0.309-5.021,0.425-6.992L163.661,168.061z
			"/>
		<polygon points="164.306,175.787 177.476,169.466 177.785,170.311 164.306,177.056 		"/>
		<path d="M138.795,171.84c0.362,2.549,1.991,7.599,3.034,9.736l-0.889,0.997c-0.764-2.806-2.907-7.798-3.306-10.378L138.795,171.84
			z"/>
		<path fill="#711A3E" d="M124.134,165.997c0,0-1.891,1.035-2.875,1.66c-1.001,0.62-3.107,1.738-3.107,1.738
			s-0.264,1.75,0.111,2.376c0.375,0.61,1.869,1.108,1.869,1.977c0,0.872-0.978,8.464-1.494,10.696
			c-0.196,0.869,0.132,1.244,0.374,1.999c0.249,0.744,0.719,0.889,1.456,1.893c0.739,0.996,0.725,2.453,0.91,4.066
			c0.126,1.119,1.481,4.637,4.077,5.349c2.008,0.531,4.507-0.208,8.231-1.855c3.109-1.372,6.265-1.053,9.494-0.309
			c3.229,0.754,4.936,1.91,9.04,1.049c2.275-0.499,4.459-1.729,7.321-2.105c2.864-0.364,2.454-0.409,2.454-0.409
			s2.724-4.143,4.254-8.252c0.802-2.146,0.767-5.146,0.767-5.146s-4.475-10.056-7.896-9.409c-3.069,0.589-9.132,4.549-14.239,7.654
			c-4.528,2.78-6.307,4.243-8.949,6.479c-1.224,1.025-4.012,2.906-7.872,2.32c-3.476-0.519-3.897-0.47-5.9-1.959
			c-1.931-1.408-2.901-1.61-2.901-1.61s0.385-1.615,0.751-2.108c0.371-0.492,3.351-2.792,4.575-3.774
			c1.625-1.296,2.766-2.108,2.766-2.108s-0.508-1.571-1.142-2.934c-0.612-1.355-0.405-0.367-1.01-2.734
			C124.569,168.176,124.134,165.997,124.134,165.997"/>
		<path fill="#10A049" d="M225.347,112.186c1.492,0.372,2.982,0.872,2.982,0.872s-0.877-3.363-2.727-5.339
			c-1.868-2-3.118-2.869-6.345-2.618c-3.24,0.247-4.865,1.246-4.865,1.246s0.881-1.246,2.369-2.365
			c1.499-1.125,3.247-0.748,4.851-0.38c1.629,0.38,3.61,0.755,3.61,0.755s-3.491-3.731-5.72-4.85
			c-2.232-1.122-4.598-1.241-6.458-0.504c-1.881,0.748-4.106,3.364-6.232,5.592c-2.124,2.243-4.967,3.863-4.967,3.863
			s0.12-0.867,0.374-1.492c0.245-0.621,1.857-1.748,3.364-3.979c1.491-2.24,1.105-2.113,1.719-4.352c0.63-2.234,0.879-1.865,2-2.616
			c1.127-0.733,4.986,1.242,4.986,1.242s-0.263-1.242-1.128-2.484c-0.873-1.243-2.869-3.228-5.471-4.104
			c-2.612-0.866-3.363,1.366-4.104,2.366c-0.754,0.991-1.122,0.243-1.122,0.243s-0.374-1.984-1.865-2.984
			c-1.487-0.984-4.271-0.071-4.849,0.751c-0.998,1.37,0,3.226,0,4.721c0,1.489-0.377,3.232-0.502,3.733
			c-0.12,0.493-0.369,0.376-0.983-0.372c-0.632-0.748-0.51-1.5-0.632-3.613c-0.13-2.117,0.247-1.988,0.383-3.605
			c0.112-1.621-0.644-1.431-1.137-1.369c-2.978,0.312-4.595,1.871-4.963,3.106c-0.32,1.007,0.242,0.875-1.352,1.123
			c-1.632,0.245-3.618,0.991-6.128,3.233c-2.253,2.056-3.601,4.485-3.843,6.963c-0.192,1.827,1.245,2.245,1.245,2.245
			s2.37-3.116,3.861-4.491c1.489-1.36,2.854-1.494,3.846-1.36c1.019,0.123,1.019,0.502,1.362,0.996
			c0.394,0.493-0.241,0.994-0.241,0.994s-2.83,0.1-5.603,1.738c-1.052,0.649-2.011,1.341-3.493,2.36
			c-0.852,0.624-1.691,2.03-3.224,4.23c-2.853,4.131-1.618,8.21-1.721,9.578c-0.146,1.366,1.352,3.233,2.103,3.738
			c0.737,0.494,0.737,0.803,0.874,1.609c0.498,2.951,2.733,3.981,2.733,3.981s-0.87,3.979-0.502,6.217
			c0.37,2.24,0.741,2.855,2.864,4.978c2.124,2.11,3.358,2.11,3.358,2.11l-0.375-2.987c-0.463-3.229,0-4.345,0.375-5.714
			c0.38-1.369,1.612-1.249,1.612-1.249s0.255,3.491,1.238,6.835c1.008,3.361,2.25,4.359,2.25,4.359s0.962-7.582,1.104-9.703
			c0.268-3.854,1.739-7.462,2.37-9.697c0.358-1.215,2.369-0.5,1.754,0.494c-0.632,0.998-1.245,9.826-0.507,12.813
			c0.756,2.981,2.487,3.478,2.487,3.478s0.126-0.371,0.371-1.863c0.249-1.498,1.387-10.442,2.124-10.318
			c0.74,0.128,2.137,1.101,4.117,3.713c2.004,2.604,0.343,7.545,1.206,6.806c1.565-1.334,3.628-3.933,3.995-6.416
			c0.235-1.546,0.083-2.039-0.067-2.183c0.33,0.109,1.188,0.347,2.926,0.811c2.373,0.629,0.987-0.866,1.129-2.363
			c0.114-1.488-0.266-2.735,0.359-2.613c0.633,0.131,3.98,2.246,4.742,4.232c0.741,1.991,1.119,6.967,1.119,6.967
			s1.986-1.496,2.604-3.36c0.618-1.859,0.618-3.979,0.737-4.843c0.095-0.593,1.119,0.233,1.51-0.504
			c0.366-0.75,0.985-7.095,0.493-9.328c-0.493-2.234-1.253-3.362-2.985-5.352c-1.733-1.986-4.349-2.362-4.349-2.362
			s2.227-1.864,4.594-2.116C223.354,111.188,223.853,111.814,225.347,112.186 M182.683,113.555c-1.284,0.704-1.769,0.954-2.15,1.314
			c-0.337,0.331-0.6,0.774-1.324,1.791c-1.023,1.469-2.863,4.485-2.863,4.485s-0.368-0.877-0.119-2.734
			c0.247-1.871,0.86-4.235,2.226-5.353c1.393-1.116,6.235-2.107,7.479-1.366C186.902,112.245,185.172,112.186,182.683,113.555
			 M205.587,113.685c0,0-1.018-2.626,3.471-5.472c1.372-0.874,3.987-1.495,2.488,0c-0.506,0.496-1.628,1.369-2.863,2.739
			C207.427,112.312,205.587,113.685,205.587,113.685 M220.872,126.123c0.248,1.613,0.122,2.604,0.122,2.604
			s-0.614-1.458-3.105-4.091c-1.871-2.004-3.243-2.37-5.09-2.748c-1.873-0.372-3.243-0.744-3.243-0.744s-0.617-1.607,0.998-1.873
			c1.618-0.237,2.859-0.371,5.847,1.49C219.38,122.631,220.625,124.501,220.872,126.123"/>
		<path fill="#FFFFFF" d="M128.108,83.982c0,0,7.734,11.186,19.814,29.911c3.863,5.96,17.931,24.917,18.753,29.78
			c0.181,1.114,0.983,25.625,0.983,25.625l0.137,3.23c0,0-6.049-7.657-18.56-4.885c-7.331,1.624-16.608,7.497-16.774,18.077
			c-9.575-16.232-13.152-34.187-12.923-52.347c0.236-18.454,3.969-35.742,7.869-48.596
			C127.736,83.879,128.108,83.982,128.108,83.982"/>
		<path fill="none" stroke="#000000" stroke-width="0.9954" stroke-miterlimit="3.864" d="M128.108,83.982
			c0,0,7.734,11.186,19.814,29.911c3.863,5.96,17.931,24.917,18.753,29.78c0.181,1.114,0.983,25.625,0.983,25.625l0.137,3.23
			c0,0-6.049-7.661-18.56-4.885c-7.331,1.624-16.608,7.497-16.774,18.077c-9.575-16.232-13.152-34.187-12.923-52.347
			c0.236-18.458,3.969-35.742,7.869-48.596C127.736,83.879,128.108,83.982,128.108,83.982z"/>
		<path fill="none" stroke="#FFFFFF" stroke-width="0.9954" stroke-miterlimit="3.864" d="M159.746,171.518
			c-0.266,5.888,0.321,16.571-3.721,23.588"/>
		<path fill="#0CBEE6" d="M118.99,199.98c0,0,7.497,2.616,10.972,1.633c2.138-0.607,4.184-2.967,8.289-2.967
			c4.113,0,5.778,2.11,11.253,2.481c5.482,0.372,7.115-2.132,8.854-2.628c1.741-0.503,3.861-1.67,8.696-0.078
			c3.61,1.183,5.908,2.706,8.512,2.706c2.626,0,7.597-1.672,9.487-2.259c1.952-0.598,4.527-0.447,6.864,0.078
			c2.229,0.502,4.7,1.542,7.929,1.669c4.562,0.188,12.704-2.899,14.828-2.921c2.607-0.008,8.125,2.14,8.125,2.14l-1.499,1.209
			c0,0-3.892-2.2-6.626-2.2c-3.601,0-7.669,2.926-13.034,3.255c-4.423,0.271-9.298-2.762-14.341-2.281
			c-2.114,0.209-8.216,2.935-11.077,2.935c-2.86,0-10.945-4.073-13.031-4.073c-4.243,0-6.839,3.428-11.398,3.906
			c-4.112,0.445-9.613-2.768-14.013-2.603c-3.271,0.122-5.096,2.681-6.519,3.094c-4.27,1.226-9.282-0.655-9.282-0.655L118.99,199.98
			z"/>
		<path fill="#0CBEE6" d="M127.305,206.653c2.133-0.599,6.845-3.935,10.947-3.935c4.111,0,5.776,2.111,11.254,2.479
			c5.48,0.369,7.117-2.121,8.857-2.634c1.739-0.493,3.854-1.649,8.691-0.066c3.608,1.179,5.907,2.7,8.509,2.7
			c2.63,0,7.6-1.669,9.488-2.25c1.954-0.609,4.527-0.45,6.864,0.076c2.229,0.505,4.7,1.338,7.929,1.662
			c6.496,0.675,12.529-3.815,17.425-2.579c2.675,0.678,1.713,1.208,0.741,1.208c-3.611,0-11.007,2.537-16.372,2.859
			c-4.423,0.271-9.298-2.772-14.341-2.276c-2.117,0.201-8.218,2.931-11.077,2.931c-2.86,0-10.946-4.076-13.032-4.076
			c-4.241,0-6.837,3.422-11.397,3.91c-4.112,0.442-9.611-2.765-14.01-2.601c-3.273,0.114-7.152,3.077-8.467,3.745L127.305,206.653z"
			/>
		<path fill="#0CBEE6" d="M131.898,209.65c2.143-0.606,2.27-2.04,6.355-2.369c5.712-0.453,5.775,2.111,11.252,2.481
			c5.48,0.364,7.117-2.133,8.857-2.628c1.74-0.498,3.857-1.663,8.691-0.084c3.61,1.191,5.908,2.712,8.512,2.712
			c2.629,0,7.599-1.675,9.487-2.251c1.954-0.603,4.527-0.461,6.863,0.082c2.23,0.491,4.701,1.54,7.93,1.654
			c4.562,0.188,12.271-2.91,14.396-2.934l-2.182,1.493c-3.595,0-5.718,2.4-11.077,2.931c-4.881,0.486-8.641-2.776-13.68-2.276
			c-2.121,0.196-8.22,2.932-11.077,2.932c-2.864,0-10.949-4.083-13.032-4.083c-4.245,0-6.842,3.428-11.4,3.914
			c-4.104,0.442-9.675-3.417-14.008-2.603c-2.606,0.486-3.144,1.547-4.562,1.947L131.898,209.65z"/>
		<path fill="#0CBEE6" d="M135.235,212.116c5.868-1.625,8.798,1.514,14.271,1.878c5.48,0.377,7.121-2.13,8.859-2.632
			c1.74-0.486,3.852-1.657,8.689-0.067c3.608,1.187,5.907,2.699,8.512,2.699c2.632,0,7.597-1.679,9.489-2.25
			c1.953-0.603,4.527-0.449,6.868,0.087c2.222,0.484,8.038,1.989,11.292,2.123l-1.574,1.021c-4.568-0.164-9.298-2.771-14.34-2.288
			c-2.117,0.205-8.214,2.938-11.077,2.938c-2.861,0-10.95-4.077-13.031-4.077c-4.241,0-6.86,3.298-11.399,3.912
			c-6.038,0.811-9.607-3.422-14.177-1.797L135.235,212.116z"/>
		<path fill="#0CBEE6" d="M142.149,216.758c4.104,0,1.72,0.931,7.195,1.314c5.472,0.367,7.275-2.139,9.019-2.639
			c1.74-0.492,3.857-1.66,8.691-0.062c3.61,1.174,5.908,2.7,8.512,2.7c2.629,0,7.599-1.673,9.487-2.255
			c1.954-0.608,4.527-0.445,6.866,0.074c2.228,0.5,2.286,0.662,5.478,1.197c0.982,0.159-0.657,0.983-0.657,0.983
			c-3.734,0-4.397-1.801-9.437-1.309c-2.121,0.207-8.22,2.938-11.077,2.938c-2.864,0-10.949-4.079-13.032-4.079
			c-4.245,0-6.842,3.42-11.4,3.902c-4.104,0.457-5.137-1.221-7.419-1.221L142.149,216.758z"/>
		<path fill="#0CBEE6" d="M151.14,222.143c5.375,0,6.02-1.593,7.646-2.368c1.562-0.731,3.432-1.761,8.268-0.169
			c3.61,1.174,5.908,2.696,8.512,2.696c2.629,0,7.599-1.675,9.487-2.25c1.954-0.6,5.871-0.081,8.208,0.456l-2.155,1.295
			c-4.238-1.471-12.022,2.131-14.88,2.131c-2.864,0-10.949-4.107-13.034-4.074c-4.715,0.083-4.894,3.027-10.018,3.522
			L151.14,222.143z"/>
		<path fill="#0CBEE6" d="M155.939,225.398c2.847-0.576,3.25-1.658,4.967-2.199c1.304-0.396,1.398-0.628,6.231,0.96
			c3.599,1.183,5.898,2.696,8.523,2.696c2.597,0,7.965-2.962,9.762-2.169c0.31,0.133-1.546,1.123-1.546,1.123
			c-3.1,0.237-4.805,2.357-8.216,2.357c-3.597,0-11.005-4.236-13.122-3.827c-4.018,0.776-2.929,1.05-4.646,1.788L155.939,225.398z"
			/>
		<path fill="#0CBEE6" d="M160.329,227.347c0.905-0.245,1.077-1.021,5.914,0.561c3.602,1.184,5.897,2.705,8.513,2.705l-1.295,0.729
			c-2.86,0-8.483-3.099-11.343-2.933L160.329,227.347z"/>
		<path fill="#0CBEE6" d="M113.659,196.078c0,0,6.129-2.202,8.486-0.742c1.846,1.169,2.742,2.479,5.447,2.292
			c3.17-0.221,5.836-2.45,10.199-2.866c2.002-0.178,4.49,0.133,7.337,0.88c2.857,0.743,4.994,1.646,9.588-0.229
			c2.957-1.207,5.325-2.509,10.188-1.638c4.843,0.867,7.976,2.678,10.838,2.678c3.103,0,10.378-1.93,14.989-1.04
			c3.724,0.734,7.647,1.784,10.749,1.636c3.418-0.17,9.442-2.2,13.267-2.681c3.123-0.399,8.23,0.526,10.224,1.148
			c1.991,0.617,2.358,0.868,2.358,0.868l-1.484,0.839c0,0-1.87-0.511-3.523-0.98c-1.607-0.471-3.636-1.565-7.504-0.83
			c-3.846,0.761-9.756,2.612-13.184,2.612c-4.24,0-8.97-0.713-12.219-1.463c-3.229-0.741-11.056,1.252-13.852,1.131
			c-4.14-0.154-8.707-3.332-14.58-3.003c-3.129,0.173-6.02,2.687-9.608,3.003c-5.091,0.465-5.61-0.629-8.716-1.131
			c-3.111-0.503-5.228-1.173-8.72,0.316c-3.475,1.501-5.555,1.964-6.919,1.964c-1.358,0-2.864-0.519-4.232-1.466
			c-1.548-1.062-3.742-0.855-4.483-0.979c-0.749-0.121-2.86,0.979-2.86,0.979L113.659,196.078z"/>
		<path fill="#FFFFFF" d="M84.197,163.676c0,0,4.523,12.613,12.536,22.132c6.405,7.595,12.709,14.324,22.979,22.814
			c12.248,10.13,35.813,26.757,50.771,31.743c8.819,2.942,18.8,6.763,18.8,6.763c1.121,0.871,1.489,1.748,1.121,2.853
			c-0.374,1.12-1.618,2.114-2.748,3.614c-1.111,1.491-1.31,2.738-0.604,3.61c0.671,0.847,1.609,1.857,3.842,0.991
			c2.89-1.153,2.608-2.24,3.612-4.856c0.982-2.606,0.765-5.121,0.765-5.121s1.825-0.449,3.033,0.154
			c1.47,0.744,3.031,0.195,5.521,0.574c2.472,0.372,4.846-0.453,5.476,0.543c0.638,0.998,1.251,2.361,2.9,2.664
			c2.109,0.378,3.934,0.15,4.94-1.302c1.12-1.646,1.265-4.007-0.382-5.971c-1.245-1.491-3.854-1.993-8.216-2.729
			c-4.353-0.75-7.065-0.373-8.198-1.121c-1.116-0.74-1.871-1.246-1.746-2.238c0.139-1.001-0.234-1.872,0.752-3.354
			c0.994-1.495,1.246-1.998,2.229-2.988c0.995-0.994,0.508-2.737-0.617-3.482c-1.12-0.746-4.227-0.746-5.347,1.245
			c-1.111,1.986-1.49,2.603-1.618,5.226c-0.117,2.61,0,2.444-0.245,3.354c-0.495,1.984-2.081,1.733-5.718,0.621
			c-13.149-4.038-21.862-7.92-34.704-15.426c-18.949-11.04-39.052-25.351-53.865-41.364
			C92.92,175.574,84.197,163.676,84.197,163.676"/>
		<path fill="none" stroke="#000000" stroke-width="1.7948" stroke-miterlimit="3.864" d="M84.197,163.676
			c0,0,4.523,12.613,12.536,22.128c6.405,7.599,12.709,14.328,22.979,22.815c12.248,10.133,35.813,26.76,50.771,31.746
			c8.819,2.942,18.8,6.763,18.8,6.763c1.121,0.871,1.489,1.751,1.121,2.853c-0.374,1.12-1.618,2.11-2.748,3.614
			c-1.111,1.491-1.31,2.742-0.604,3.61c0.671,0.847,1.609,1.857,3.842,0.991c2.89-1.153,2.608-2.24,3.612-4.856
			c0.982-2.606,0.765-5.116,0.765-5.116s1.825-0.454,3.033,0.155c1.47,0.738,3.031,0.191,5.521,0.568
			c2.472,0.372,4.846-0.453,5.476,0.543c0.638,0.998,1.251,2.358,2.9,2.664c2.109,0.378,3.934,0.15,4.94-1.297
			c1.12-1.657,1.265-4.012-0.382-5.976c-1.245-1.491-3.854-1.993-8.216-2.729c-4.353-0.754-7.065-0.373-8.198-1.125
			c-1.116-0.736-1.871-1.245-1.746-2.234c0.139-1.001-0.234-1.872,0.752-3.354c0.994-1.495,1.246-1.998,2.229-2.988
			c0.995-0.994,0.508-2.737-0.617-3.482c-1.12-0.746-4.227-0.746-5.347,1.245c-1.111,1.986-1.49,2.603-1.618,5.226
			c-0.117,2.61,0,2.444-0.245,3.354c-0.495,1.984-2.081,1.733-5.718,0.621c-13.149-4.038-21.862-7.92-34.704-15.426
			c-18.949-11.04-39.052-25.351-53.865-41.364C92.92,175.574,84.197,163.676,84.197,163.676z"/>
		<path fill="#FFFFFF" d="M257.104,163.676c0,0-4.548,12.613-12.561,22.132c-6.397,7.595-12.71,14.324-22.975,22.814
			c-12.234,10.13-35.823,26.757-50.78,31.743c-8.814,2.942-18.791,6.763-18.791,6.763c-1.108,0.871-1.494,1.748-1.108,2.853
			c0.361,1.12,1.614,2.114,2.738,3.614c1.122,1.491,1.312,2.738,0.618,3.61c-0.689,0.847-1.613,1.857-3.86,0.991
			c-2.894-1.153-2.606-2.24-3.604-4.856c-1-2.606-0.783-5.121-0.783-5.121s-1.821-0.449-3.022,0.154
			c-1.478,0.744-3.65,0.827-6.145,1.205c-2.508,0.373-4.215-1.084-4.857-0.088c-0.631,0.998-1.254,2.361-2.908,2.664
			c-2.088,0.378-3.924,0.15-4.927-1.302c-1.137-1.646-1.27-4.007,0.379-5.971c1.235-1.491,3.853-1.993,8.211-2.729
			c4.348-0.75,7.086-0.06,8.206-0.808c1.106-0.738,1.862-1.56,1.739-2.552c-0.125-1.001,0.252-1.872-0.731-3.354
			c-1.008-1.495-1.267-1.998-2.253-2.988c-0.996-0.994-0.491-2.737,0.625-3.482c1.112-0.746,4.221-0.746,5.342,1.245
			c1.123,1.986,1.493,2.603,1.616,5.226c0.124,2.61,0,2.444,0.268,3.354c0.487,1.984,2.074,1.733,5.716,0.621
			c13.155-4.038,21.842-7.92,34.697-15.426c18.958-11.04,39.047-25.351,53.872-41.364
			C248.365,175.574,257.104,163.676,257.104,163.676"/>
		<path fill="none" stroke="#000000" stroke-width="1.7948" stroke-miterlimit="3.864" d="M257.104,163.676
			c0,0-4.548,12.613-12.561,22.128c-6.397,7.599-12.71,14.328-22.975,22.815c-12.234,10.133-35.823,26.76-50.78,31.746
			c-8.814,2.942-18.791,6.763-18.791,6.763c-1.108,0.871-1.494,1.751-1.108,2.853c0.361,1.12,1.614,2.11,2.738,3.614
			c1.122,1.491,1.312,2.742,0.618,3.61c-0.689,0.847-1.613,1.857-3.86,0.991c-2.894-1.153-2.606-2.24-3.604-4.856
			c-1-2.606-0.783-5.116-0.783-5.116s-1.821-0.454-3.022,0.155c-1.478,0.738-3.65,0.821-6.145,1.199
			c-2.508,0.373-4.215-1.084-4.857-0.088c-0.631,0.998-1.254,2.358-2.908,2.664c-2.088,0.378-3.924,0.15-4.927-1.297
			c-1.137-1.657-1.27-4.012,0.379-5.976c1.235-1.491,3.853-1.993,8.211-2.729c4.348-0.754,7.086-0.06,8.206-0.805
			c1.106-0.741,1.862-1.565,1.739-2.555c-0.125-1.001,0.252-1.872-0.731-3.354c-1.008-1.495-1.267-1.998-2.253-2.988
			c-0.996-0.994-0.491-2.737,0.625-3.482c1.112-0.746,4.221-0.746,5.342,1.245c1.123,1.986,1.493,2.603,1.616,5.226
			c0.124,2.61,0,2.444,0.268,3.354c0.487,1.984,2.074,1.733,5.716,0.621c13.155-4.038,21.842-7.92,34.697-15.426
			c18.958-11.04,39.047-25.351,53.872-41.364C248.365,175.574,257.104,163.676,257.104,163.676z"/>
		<path d="M128.235,83.414l-1.042,1.004c10.841,18.622,27.444,40.344,39.796,59.894l0.428-1.753L128.235,83.414z"/>
		<path fill="none" stroke="#000000" stroke-width="0.7198" d="M128.235,83.414l-1.042,1.004
			c10.841,18.622,27.444,40.344,39.796,59.894l0.428-1.753L128.235,83.414z"/>
		<path fill="none" stroke="#FFFFFF" stroke-width="0.7198" d="M120.977,189.351c6.884,3.306,12.022,1.581,16.328-1.053
			c10.138-6.206,11.284-8.153,22.123-13.484c2.036,0.539,3.999,3.776,6.955,9.164"/>
		<path d="M143.928,102.256c-0.178,1.426-0.152,3.442-0.077,4.666l-1.929-0.066c0.103-1.579-0.508-3.188,0.056-4.595
			L143.928,102.256z"/>
	</g>
	<g>
		<path fill="#FFFFFF" d="M19.656,195.084c-0.039-0.309,0.426-1.456,1.395-3.444l-3.175-2.271c-0.961,2.049-1.439,3.338-1.438,3.867
			c0.942,0.817,1.608,1.42,1.998,1.807l-1.5,3.734c0.589,0.709,1.689,1.494,3.299,2.361l1.613-3.895
			c-0.419-0.354-0.825-0.724-1.217-1.112C19.996,195.555,19.671,195.206,19.656,195.084z"/>
		<path fill="#FFFFFF" d="M37.415,213.714l5.773-1.274c0.334-0.072,1.195,0.352,2.585,1.27c1.658,1.07,2.585,1.644,2.781,1.712
			c1.189-3.977,2.459-6.049,3.809-6.216l0.184-0.022l0.581-0.211c-0.238-0.407-1.128-0.936-2.671-1.584
			c-1.047-0.402-2.108-0.815-3.189-1.243c-0.449,0.647-0.847,1.211-1.192,1.688c-0.613,0.324-2.177,0.838-4.69,1.537
			c-2.513,0.7-4.199,1.103-5.057,1.209c-0.153,0.019-0.278,0.018-0.374,0l-0.155-0.121l-1.728-13.985
			c-2.213-1.283-3.801-2.036-4.763-2.259c0.083,1.422,0.163,2.828,0.242,4.22c-0.042,1.687-0.556,2.933-1.546,3.741l-0.161-0.168
			c-1.217-2.808-1.951-5.208-2.197-7.2c-0.201-1.626-0.049-3.17,0.455-4.633c0.62-1.789,1.681-2.777,3.183-2.962
			c1.135-0.141,2.343,0.067,3.626,0.625c0.754,0.312,1.708,0.848,2.861,1.608c0.915,0.603,1.464,0.893,1.648,0.87
			c0.153-0.017,0.272-0.064,0.356-0.136c0.004-0.718-1.272-1.853-3.83-3.403c-2.968-1.845-5.847-2.595-8.637-2.249
			c-1.318,0.162-2.44,0.845-3.365,2.051c-0.926,1.203-1.311,2.435-1.155,3.691c0.022,0.184,0.574,0.613,1.654,1.289
			c-0.817,1.16-1.32,2.001-1.51,2.522L21.047,195c0.071,0.583,0.73,1.248,1.974,1.998c-0.426,1.08-0.632,1.682-0.618,1.803
			c0.042,0.339,0.289,0.947,0.739,1.824c0.452,0.881,0.789,1.476,1.014,1.789c0.697,0.85,1.624,1.544,2.78,2.088
			c1.05,0.429,2.099,0.86,3.149,1.292l0.79,6.393c0.041,0.338,0.238,0.672,0.59,1.001c0.579,0.146,1.616,0.291,3.113,0.434
			C36.075,213.763,37.02,213.793,37.415,213.714z"/>
		<path fill="#FFFFFF" d="M65.599,247.688c-0.156-0.899-0.256-2.022-0.3-3.367c-0.079-1.731,0.006-2.772,0.254-3.124
			c0.248-0.353,0.621-0.713,1.117-1.081l0.039-0.359c-1.449-0.223-3.562-0.132-6.338,0.276c-0.239,0.754-0.371,1.417-0.396,1.992
			c-0.411,0.609-1.577,1.797-3.499,3.565c-1.923,1.767-3.244,2.891-3.962,3.371c-0.129,0.086-0.283,0.133-0.463,0.142l-2.704-4.047
			c0,0-1.27-2.314-1.35-2.478c0.646,0.062,1.271,0.114,1.876,0.16c0.784,0.062,1.369-0.005,1.754-0.195
			c1.13-0.558,1.82-1.655,2.073-3.296c0.21-1.518,0.029-2.857-0.544-4.021c-0.958-1.941-2.147-3.129-3.568-3.563
			c-0.801-0.227-2.487-0.291-5.057-0.192c0.589,0.847,0.905,1.31,0.947,1.393c0.642,1.302,0.565,2.685-0.23,4.146l-3.021-6.321
			l-0.801-2.319c-0.292-0.848-0.219-1.396,0.218-1.644c1.417-0.915,3.861-2.119,7.335-3.61c2.597-1.093,5.195-2.186,7.793-3.277
			c-0.364-0.201-1.212-0.53-2.546-0.984c-1.442-0.483-2.265-0.69-2.47-0.618l-16.646,7.459l2.12,6.589l3.672,7.439
			c1.215,0.158,2.126,0.261,2.735,0.304c-0.641,1.005-1.135,1.75-1.483,2.231l2.585,5.237l3.795,5.519
			c0.419,0.239,0.685,0.358,0.797,0.358c0.35,0.027,1.275-0.258,2.774-0.851c1.5-0.594,2.399-1.027,2.699-1.301l4.894-3.938
			L65.599,247.688z"/>
		<path fill="#FFFFFF" d="M72.76,250.989c-2.892,0.196-5.181,0.609-6.862,1.245l-10.144,11.145c2.761,0.034,5.354-0.955,7.778-2.97
			C65.624,258.673,68.699,255.531,72.76,250.989z"/>
		<path fill="#FFFFFF" d="M157.175,297.517c-2.154,1.941-3.697,3.68-4.627,5.218l-1.091,15.03c2.192-1.678,3.62-4.059,4.281-7.141
			C156.309,307.967,156.787,303.598,157.175,297.517z"/>
		<path fill="#FFFFFF" d="M87.828,294.306c-0.677-1.302-1.187-2.487-1.534-3.555c-0.704,0.197-1.412,0.375-2.123,0.531
			c-0.981,0.274-1.613,0.504-1.894,0.691c0.482,1.522,1.091,2.812,1.829,3.861c1.207-0.384,2.116-0.577,2.725-0.587
			c0.921,2.299,1.497,3.527,1.725,3.687c0.151,0.106,0.784-0.019,1.897-0.371c0.691-0.235,1.395-0.46,2.11-0.678l-1.766-4.111
			L87.828,294.306z"/>
		<path fill="#FFFFFF" d="M130.431,293.608c0.2,0.078,1.094-0.24,2.681-0.949l3.04,3.289c1.693-0.416,2.993-1.072,3.902-1.958
			l-3.012-3.396c-0.532,0.175-1.063,0.349-1.592,0.524c-0.876,0.293-1.357,0.426-1.443,0.393c-0.52-0.201-1.381-1.228-2.587-3.083
			l-3.895,1.726C128.86,292.225,129.829,293.377,130.431,293.608z"/>
		<path fill="#FFFFFF" d="M147.254,296.893c-1.161-1.289-1.756-2.146-1.788-2.575s0.028-0.946,0.178-1.546l-0.199-0.302
			c-1.26,0.749-2.834,2.16-4.722,4.235c0.293,0.735,0.614,1.334,0.958,1.791c0.068,0.731-0.079,2.391-0.442,4.975
			c-0.364,2.588-0.671,4.296-0.922,5.123c-0.045,0.147-0.135,0.281-0.268,0.403l-4.657-1.411l-0.002,0.005l-1.542-0.594
			c-0.202-0.078-0.351-0.399-0.447-0.968c-0.097-0.566-0.105-0.95-0.027-1.153c0.155-0.402,0.462-0.988,0.924-1.755
			c0.46-0.765,0.769-1.35,0.924-1.754l0.767-1.989c-0.879,0.39-1.748,0.801-2.609,1.229c-1.244,0.646-1.948,1.186-2.114,1.618
			c-0.701,1.817-1.239,2.867-1.613,3.154l-7.633-2.941c-1.133-0.554-1.777-0.868-1.915-0.935c0.548-0.348,1.075-0.688,1.583-1.021
			c0.657-0.432,1.08-0.841,1.269-1.228c0.552-1.131,0.427-2.423-0.378-3.876c-0.761-1.328-1.724-2.276-2.891-2.848
			c-1.944-0.948-3.611-1.158-5.002-0.636c-0.771,0.312-2.144,1.292-4.118,2.941c0.984,0.31,1.518,0.483,1.602,0.525
			c1.305,0.637,2.089,1.777,2.354,3.419l-6.28-3.065c0,0-0.943-0.682-1.008-0.756c-0.341-0.273-0.429-0.61-0.263-1.015
			c0.43-1.036,1.646-3.53,3.647-7.479c1.567-3.093,2.644-5.651,3.225-7.676l-0.09-0.214l-5.614,2.506l-4.723,11.685l-4.19-2.383
			l-0.511-0.354c-1.167-0.814-1.344-1.802-0.53-2.971c0.212-0.303,0.579-0.735,1.101-1.295c0.521-0.558,0.889-0.991,1.1-1.295
			l1.405-2.015c-0.965,0.194-1.929,0.388-2.893,0.584c-1.343,0.306-2.174,0.687-2.491,1.144c-0.425,0.608-0.761,1.092-1.012,1.452
			c-0.405,0.579-0.831,0.977-1.279,1.19l-6.77-4.721l0,0l-1.76-1.321c-0.575-0.517-0.331-1.92,0.73-4.207
			c0.746-1.612,1.527-2.99,2.343-4.127c-5.157-3.185-8.737-4.702-10.741-4.554c-1.167,0.28-2.041,0.534-2.619,0.761
			c-2.301,0.756-4.547,3.208-4.941,3.918l-6.638,9.294c3.516-1.366,5.488-2.356,5.916-2.969l4.69-6.3
			c0.215-0.381,0.822-0.455,1.821-0.231c0.862,0.199,1.488,0.45,1.879,0.753c0.074,0.056,0.112,0.106,0.118,0.149
			c-1.096,0.557-1.499-0.266-2.593,0.164c-0.069,1.601,0.396,3.578,1.396,5.933c0.799,1.881,1.609,3.775,2.433,5.68l2.763-0.506
			l2.29,1.749l5.932,4.133c1.611-0.798,2.646-1.282,3.103-1.452c-0.674,1.939-0.34,3.379,1.005,4.314l2.471,1.723l2.571,1.38
			l2.989-1.791c-0.271,0.521-0.542,1.043-0.813,1.565c-0.333,0.809-0.338,1.306-0.019,1.495l3.681,2.165l7.395,3.764
			c1.058-0.619,1.841-1.096,2.349-1.431c0.108,1.188,0.172,2.078,0.192,2.671l5.249,2.562l6.29,2.365
			c1.282-1.096,2.17-1.809,2.666-2.149c-0.25,2.023,0.332,3.307,1.745,3.853l3.044,1.119l5.533,1.677
			c0.476-0.08,0.757-0.157,0.844-0.228c0.287-0.203,0.821-1.011,1.605-2.42c0.782-1.41,1.201-2.316,1.259-2.718l1.283-6.149
			l4.817-3.432C148.93,298.707,148.14,297.904,147.254,296.893z M81.998,278.05c-0.712-1.472-1.166-2.816-1.36-4.03
			c0.413-0.042,0.931,0.049,1.556,0.279c0.471,0.216,0.964,0.431,1.479,0.643C83.024,275.94,82.466,276.977,81.998,278.05z"/>
		<path fill="#FFFFFF" d="M179.27,301.945c-1.334,0.345-2.608,1.513-3.818,3.501c-1.115,1.832-1.687,3.507-1.713,5.021
			c-0.049,2.657,0.962,4.004,3.031,4.041c1.236,0.022,2.122-0.254,2.658-0.832c0.251-0.242,0.715-1.053,1.389-2.431
			c0.089,0.155,0.133,0.343,0.129,0.559c-0.006,0.31-0.106,0.724-0.302,1.246c-0.548,1.257-1.786,2.662-3.716,4.22
			c-1.928,1.555-3.59,2.493-4.986,2.807c-0.621,0.144-1.689,0.23-3.204,0.267c-1.36,0.006-2.382,0.111-3.065,0.315l-0.005,0.325
			c1.492,1.231,4.631,1.891,9.42,1.979c2.378,0.042,4.387-1.575,6.022-4.852c1.348-2.727,2.044-5.434,2.095-8.121
			c0.026-1.543-0.268-3.111-0.89-4.698C181.545,303.423,180.529,302.308,179.27,301.945z M179.32,309.362
			c-0.839,0.294-1.322,0.44-1.445,0.438c-0.555-0.01-1.244-0.33-2.068-0.966c0.131-0.397,0.386-0.787,0.764-1.167
			c0.378-0.378,0.767-0.566,1.169-0.558c0.464,0.009,0.854,0.255,1.168,0.738c0.317,0.485,0.453,0.943,0.417,1.375L179.32,309.362z"
			/>
		<path fill="#FFFFFF" d="M224.646,311.488c-1.457-0.157-2.727-0.388-3.809-0.692c-0.225,0.696-0.47,1.385-0.731,2.063
			c-0.317,0.97-0.476,1.622-0.476,1.961c1.536,0.441,2.944,0.646,4.229,0.615c0.352-1.217,0.692-2.081,1.021-2.593
			c2.424,0.506,3.765,0.708,4.025,0.605c0.171-0.067,0.418-0.661,0.741-1.785c0.187-0.705,0.389-1.415,0.605-2.133l-4.403-0.806
			L224.646,311.488z"/>
		<path fill="#FFFFFF" d="M246.99,271.255l4.313-1.202c0.402-1.696,0.416-3.15,0.04-4.365l-4.396,1.129
			c-0.087,0.553-0.174,1.104-0.261,1.655c-0.138,0.915-0.241,1.401-0.31,1.465c-0.416,0.369-1.724,0.665-3.926,0.89l-0.242,4.256
			c2.454-0.243,3.92-0.579,4.401-1.008C246.77,273.932,246.896,272.992,246.99,271.255z"/>
		<path fill="#FFFFFF" d="M268.098,271.419c-0.928-1.32-1.561-2.093-1.897-2.319l-4.978-3.834l-0.99-5.831
			c-0.838,0.363-1.905,0.725-3.203,1.082c-1.664,0.483-2.696,0.645-3.097,0.486c-0.399-0.158-0.837-0.435-1.312-0.832l-0.36,0.048
			c0.125,1.46,0.712,3.49,1.757,6.094c0.789,0.057,1.466,0.029,2.029-0.083c0.688,0.257,2.117,1.111,4.286,2.566
			c2.168,1.454,3.571,2.473,4.208,3.062c0.113,0.104,0.195,0.244,0.245,0.416l-3.298,3.576l0.023,0.023l-1.431,1.275
			c-0.162,0.145-0.517,0.129-1.066-0.043c-0.548-0.174-0.893-0.342-1.036-0.504c-0.288-0.321-0.668-0.862-1.139-1.624
			c-0.472-0.759-0.851-1.3-1.139-1.623l-1.42-1.591c-0.055,0.96-0.087,1.921-0.1,2.881c0.01,1.403,0.167,2.275,0.476,2.622
			c1.296,1.453,1.986,2.413,2.069,2.875l-6.191,5.525l0.015,0.017c-1.19,0.821-1.858,1.284-1.996,1.378
			c-0.034-0.647-0.073-1.274-0.114-1.88c-0.055-0.786-0.203-1.354-0.448-1.708c-0.715-1.035-1.903-1.56-3.563-1.57
			c-1.533,0.011-2.832,0.387-3.899,1.124c-1.779,1.229-2.782,2.578-3.007,4.049c-0.104,0.823,0.076,2.502,0.546,5.029
			c0.75-0.706,1.165-1.086,1.24-1.139c1.195-0.824,2.574-0.95,4.135-0.376l-6.095,4.207c0,0-1.105,0.387-1.201,0.402
			c-0.412,0.149-0.746,0.048-1.003-0.307c-0.659-0.91-2.147-3.25-4.464-7.021c-1.816-2.955-3.435-5.21-4.854-6.767l-0.229-0.033
			l-0.805,6.094l7.485,10.142l-4.257,2.262l-0.903,0.485c-1.323,0.521-2.244,0.121-2.765-1.203c-0.137-0.346-0.293-0.89-0.469-1.634
			c-0.177-0.743-0.333-1.288-0.469-1.633l-0.901-2.286c-0.371,0.91-0.744,1.821-1.115,2.73c-0.489,1.289-0.633,2.191-0.428,2.709
			c0.27,0.687,0.485,1.231,0.645,1.64c0.261,0.662,0.354,1.237,0.285,1.729l-7.679,3.024l0,0l-2.544,0.813
			c-0.757,0.157-1.745-0.866-2.966-3.073c-0.864-1.554-1.515-2.997-1.95-4.327c-5.614,2.284-8.951,4.281-10.015,5.986
			c-0.463,1.108-0.772,1.962-0.931,2.565c-0.747,2.303-0.978,3.836-0.692,4.596l4.529,12.547c0.971-3.646,1.334-5.821,1.093-6.528
			l-3.032-9.024c-0.15-0.409,0.185-0.923,1.002-1.536c0.71-0.529,1.309-0.844,1.792-0.945c0.091-0.019,0.154-0.015,0.19,0.007
			c-0.285,1.197-0.577,2.365-0.875,3.499c1.252,1.002,3.123,1.793,5.613,2.375c1.992,0.465,3.999,0.928,6.022,1.386l1.221-2.528
			l3.409-1.065l-1.698-4.313l1.698,4.313l6.729-2.649c0.228-1.782,0.398-2.913,0.508-3.389c1.244,1.638,2.626,2.157,4.149,1.557
			l2.937-1.323l2.907-1.544l0.038-3.483c0.303,0.504,0.605,1.009,0.908,1.512c0.516,0.706,0.937,0.973,1.264,0.799l4.403-2.145
			l6.825-4.714c-0.02-1.225-0.052-2.141-0.095-2.75c1.087,0.488,1.896,0.868,2.423,1.143l4.843-3.419l5.395-4.813
			c-0.388-1.642-0.619-2.759-0.693-3.355c1.685,1.146,3.093,1.216,4.222,0.208l2.384-2.202l4.179-4.53
			c0.134-0.467,0.188-0.753,0.162-0.86C269.519,273.568,269.025,272.734,268.098,271.419z M203.299,305.949
			c0.208-0.36,0.59-0.725,1.143-1.093c0.452-0.253,0.917-0.524,1.394-0.813c0.423,1.111,0.929,2.173,1.521,3.186
			C205.746,306.936,204.395,306.508,203.299,305.949z M221.959,301.249C221.977,301.288,221.975,301.288,221.959,301.249
			L221.959,301.249z"/>
		<path fill="#FFFFFF" d="M273.111,258.748c-2.137-1.681-5.852-4.031-11.142-7.051c0.795,2.787,1.681,4.937,2.653,6.448
			l13.021,7.587C277.1,263.025,275.589,260.696,273.111,258.748z"/>
		<path fill="#FFFFFF" d="M286.995,237.766c-2.133-1.187-5.021-0.638-8.664,1.649c0.734,2.178,1.644,4.292,2.729,6.345
			c1.453,2.79,2.815,4.539,4.083,5.244c1.053,0.585,2.007,0.462,2.86-0.373c0.487-0.435,1.102-1.313,1.839-2.636
			c0.9-1.619,1.049-3.508,0.447-5.664C289.686,240.173,288.589,238.65,286.995,237.766z M285.909,245.435
			c-0.768,1.376-1.608,1.811-2.526,1.301c-0.326-0.18-0.684-0.681-1.076-1.501c-0.278-0.579-0.557-1.157-0.836-1.737
			c2.504-1.26,4.411-1.7,5.723-1.324C286.833,243.456,286.404,244.545,285.909,245.435z"/>
		<path fill="#FFFFFF" d="M272.38,234.192c0.141,0.574,0.268,1.14,0.382,1.697c0.168,0.906,0.213,1.429,0.137,1.563
			c-0.3,0.541-1.464,1.236-3.495,2.087c0.504,1.764,0.949,3.125,1.334,4.083c1.508-0.609,2.78-1.404,3.819-2.381l-0.656-2.912
			l3.814-2.462c-0.101-1.369-0.599-2.736-1.494-4.099L272.38,234.192z"/>
		<path fill="#FFFFFF" d="M296.47,224.807c-1.659-0.751-3.31-1.041-4.948-0.867c-1.282,0.13-2.916,0.628-4.902,1.493
			c1.516,1.671,2.695,2.884,3.542,3.638c3.544-1.309,5.6-1.837,6.162-1.581c1.042,0.47,1.949,2.098,2.728,4.874
			c0.774,2.778,0.908,4.729,0.399,5.855c-0.372,0.816-1.398,1.959-3.085,3.437l-0.229,0.506c0.131,0.16,0.265,0.272,0.408,0.337
			c0.617,0.28,1.953-0.572,4.009-2.56c1.904-1.883,3.049-3.249,3.432-4.093c0.79-1.744,0.149-3.884-1.924-6.419
			C300.304,227.24,298.44,225.7,296.47,224.807z"/>
		<path fill="#FFFFFF" d="M287.908,217.355l14.689,3.361c-1.326-2.422-3.462-4.194-6.407-5.314
			c-2.54-0.968-6.786-2.105-12.737-3.412C285.045,214.416,286.528,216.203,287.908,217.355z"/>
		<path fill="#FFFFFF" d="M288.331,204.721c0.207,0.064,0.796-0.242,1.771-0.925c0.975-0.683,1.519-1.151,1.631-1.408
			c-0.493-2.454-0.976-3.753-1.447-3.902c-0.118-0.035-0.784,0.306-1.997,1.026c-1.214,0.721-1.839,1.14-1.877,1.259
			c-0.056,0.177,0.207,0.864,0.786,2.065C287.776,204.038,288.153,204.666,288.331,204.721z"/>
		<path fill="#FFFFFF" d="M310.92,204.712c-2.009-1.957-4.046-3.261-6.107-3.906c-1.741-0.547-3.413-0.632-5.02-0.261
			c-1.257,0.286-2.816,0.979-4.683,2.076c1.707,1.476,3.025,2.535,3.956,3.183c3.359-1.729,5.336-2.504,5.926-2.319
			c1.09,0.344,2.188,1.845,3.297,4.507s1.479,4.585,1.108,5.765c-0.269,0.854-1.149,2.115-2.644,3.785l-0.167,0.53
			c0.149,0.144,0.296,0.239,0.445,0.285c0.647,0.203,1.871-0.807,3.669-3.028c1.661-2.102,2.633-3.593,2.909-4.479
			C314.185,209.021,313.286,206.977,310.92,204.712z"/>
		<path fill="#FFFFFF" d="M314.669,188.907c-2.382-1.891-4.881-3.142-7.498-3.757c-1.504-0.352-3.097-0.393-4.779-0.119
			c-1.989,0.357-3.293,1.117-3.914,2.271c0.059,1.379,0.932,2.869,2.619,4.47c1.557,1.476,3.074,2.388,4.547,2.733
			c2.589,0.606,4.117-0.099,4.591-2.115c0.281-1.203,0.196-2.127-0.255-2.772c-0.184-0.298-0.878-0.921-2.084-1.868
			c0.172-0.057,0.363-0.059,0.572-0.009c0.301,0.07,0.688,0.255,1.155,0.557c1.113,0.8,2.229,2.308,3.344,4.521
			s1.68,4.035,1.695,5.468c0.009,0.635-0.132,1.698-0.415,3.187c-0.281,1.33-0.395,2.35-0.339,3.063l0.317,0.072
			c1.519-1.198,2.824-4.128,3.918-8.792C318.686,193.501,317.528,191.197,314.669,188.907z M305.863,190.319
			c-0.126,0.543-0.585,1.148-1.377,1.82c-0.364-0.213-0.691-0.543-0.982-0.993c-0.291-0.448-0.391-0.868-0.3-1.26
			c0.106-0.452,0.429-0.78,0.97-0.986c0.541-0.207,1.018-0.244,1.432-0.116l0.135,0.031
			C305.853,189.699,305.892,190.2,305.863,190.319z"/>
	</g>
</g>
</svg>
